<svg width="110" viewBox="0 0 201 76" fill="none" xmlns="http://www.w3.org/2000/svg" class="peczis-budget-logo">
    <style>
        .peczis-budget-logo {
            height: auto !important;
        }
        .peczis-budget-logo.h-8 {
            width: 220px !important;
        }
    </style>
<g clip-path="url(#clip0_1_2)">
<path d="M64.42 24.09H71.72V27.79C72.5983 26.4806 73.7906 25.412 75.188 24.6819C76.5855 23.9517 78.1435 23.5832 79.72 23.61C85.72 23.61 91.44 28.31 91.44 36.91V37C91.44 45.6 85.82 50.3 79.72 50.3C78.1796 50.3273 76.6541 49.9943 75.2651 49.3276C73.8762 48.6609 72.6622 47.6789 71.72 46.46V57.46H64.42V24.09ZM84.15 37V36.91C84.15 32.63 81.27 29.8 77.86 29.8C74.45 29.8 71.62 32.63 71.62 36.91V37C71.62 41.28 74.45 44.11 77.86 44.11C81.27 44.11 84.15 41.32 84.15 37Z" fill="#3A3A3A" class="logo-letter"/>
<path d="M93.41 37.24V37.15C93.41 29.9 98.55 23.95 105.8 23.95C113.86 23.95 117.94 30.28 117.94 37.58C117.94 38.11 117.94 38.64 117.85 39.21H99.22C99.3826 41.0124 100.23 42.6839 101.588 43.8801C102.946 45.0763 104.711 45.7062 106.52 45.64C107.81 45.65 109.088 45.3881 110.27 44.8712C111.452 44.3542 112.512 43.594 113.38 42.64L116.79 45.64C115.546 47.1802 113.963 48.4115 112.164 49.2373C110.365 50.0631 108.399 50.4611 106.42 50.4C99.08 50.4 93.41 45.07 93.41 37.24ZM112.18 35.37C111.8 31.63 109.59 28.7 105.75 28.7C102.2 28.7 99.75 31.43 99.17 35.37H112.18Z" fill="#3A3A3A" class="logo-letter"/>
<path d="M120 37.29V37.2C119.984 35.4621 120.314 33.7384 120.972 32.1297C121.63 30.5209 122.602 29.0594 123.83 27.8305C125.059 26.6015 126.521 25.6298 128.13 24.9722C129.738 24.3145 131.462 23.984 133.2 24C135.107 23.9257 137.006 24.2787 138.759 25.0331C140.511 25.7874 142.073 26.9241 143.33 28.36L139.68 32.25C137.91 30.33 136 29 133.16 29C128.93 29 125.81 32.65 125.81 37.07V37.17C125.81 41.68 128.93 45.28 133.4 45.28C134.656 45.2617 135.894 44.9768 137.032 44.4441C138.17 43.9114 139.181 43.1431 140 42.19L143.51 45.64C141.771 47.7321 139.432 49.2402 136.809 49.9607C134.186 50.6812 131.405 50.5793 128.841 49.6689C126.278 48.7584 124.055 47.0832 122.474 44.8695C120.893 42.6558 120.03 40.0102 120 37.29Z" fill="#3A3A3A" class="logo-letter"/>
<path d="M145.25 45.84L159.89 29.23H145.78V24.47H167.28V28.47L152.64 45.07H167.28V49.82H145.28L145.25 45.84Z" fill="#3A3A3A" class="logo-letter"/>
<path d="M171 15.07H177.24V20.59H171V15.07ZM171.24 24.47H177V49.82H171.19L171.24 24.47Z" fill="#3A3A3A" class="logo-letter"/>
<path d="M180.15 46.51L182.74 42.57C185.106 44.4644 188.012 45.5571 191.04 45.69C193.54 45.69 194.98 44.69 194.98 42.96V42.86C194.98 40.86 192.29 40.22 189.32 39.31C185.57 38.25 181.39 36.72 181.39 31.87V31.77C181.39 26.97 185.39 24.04 190.39 24.04C193.702 24.1056 196.929 25.1038 199.7 26.92L197.4 31.05C195.266 29.6414 192.802 28.8141 190.25 28.65C187.99 28.65 186.69 29.71 186.69 31.15V31.24C186.69 33.11 189.43 33.88 192.41 34.84C196.1 35.99 200.28 37.68 200.28 42.24V42.33C200.28 47.66 196.15 50.33 190.87 50.33C186.975 50.2626 183.21 48.9208 180.15 46.51Z" fill="#3A3A3A" class="logo-letter"/>
<path d="M36.69 44.79L19.69 52.79L35.69 70.79L52.69 62.79L6.69 11.79L22.69 4.78999L39.69 22.79L23.69 29.79" stroke="#E74430" stroke-width="8" stroke-miterlimit="10"/>
<path d="M131.052 56.3093L130.942 57.6001L130.665 57.6278L130.93 57.7454L130.859 58.5786L130.738 59.9981L132.114 59.6294C132.201 59.606 132.297 59.5827 132.4 59.5596C131.358 62.1966 130.586 65.0586 130.079 68.1421L129.96 68.8625L130.61 69.1948L133.05 70.4418L133.393 70.6168L133.764 70.5173C134.393 70.3488 135.043 70.135 135.714 69.8774C138.077 68.9705 139.999 67.7454 141.432 66.175L141.735 65.8433L141.688 65.3966L141.449 63.1127L141.39 62.5476L140.874 62.3092C140.766 62.2591 140.658 62.2102 140.55 62.1625C141.51 61.3577 142.314 60.4294 142.958 59.3777C142.59 61.043 142.319 62.739 142.144 64.4656L142.078 65.1232L142.657 65.442L145.411 66.9588L145.952 67.2566L146.461 66.9066C147.496 66.1942 148.369 65.5416 149.072 64.9499L150.924 65.9526L152.222 66.6554L152.393 65.1897C153.013 59.8999 153.922 56.0311 155.081 53.5113L155.099 53.4705L155.627 53.3292C155.732 53.301 155.846 53.2732 155.969 53.2459C155.521 54.3907 155.124 55.5822 154.777 56.8202L154.776 56.8254C154.46 57.9763 154.158 59.4881 153.866 61.3466L153.755 62.0545L154.389 62.3873L157.165 63.8427L157.608 64.075L158.059 63.8597C160.569 62.6632 162.586 61.0529 164.079 59.0173L164.08 59.0156C165.708 56.7852 166.491 54.29 166.41 51.5621L166.4 51.227L166.19 50.9656L164.54 48.9107L164.295 48.6053L163.908 48.5477C162.458 48.3321 161.019 48.2955 159.593 48.4397C158.203 48.5684 156.787 48.7949 155.343 49.118L154.627 49.2782L154.565 50.009L154.457 51.2703L154.279 51.2874L154.449 51.3645L154.389 52.0696L152.249 50.8729L151.299 50.342L150.85 51.3329C149.971 53.2736 149.139 56.3198 148.339 60.4078C148.036 60.6232 147.704 60.8434 147.341 61.0684C147.351 61.0184 147.361 60.9683 147.371 60.9181C147.93 58.3193 148.618 56.1419 149.425 54.3721L149.803 53.5416L149.011 53.089L146.634 51.7317L145.65 51.1692L145.215 52.2168C144.435 54.0951 143.794 56.0176 143.29 57.984L143.131 57.7891L141.022 55.2048L140.778 54.9049L140.395 54.8479C138.945 54.6323 137.506 54.5957 136.08 54.7399C134.691 54.8687 133.274 55.0952 131.83 55.4183L131.114 55.5785L131.052 56.3093ZM137.35 59.4129L137.464 59.1376C137.523 59.1399 137.58 59.1425 137.638 59.1454C137.545 59.2344 137.449 59.3236 137.35 59.4129ZM160.495 56.1476C160.151 56.6808 159.766 57.1708 159.341 57.6184C159.736 56.1474 160.256 54.6621 160.904 53.1621L161.052 52.8177C161.286 52.8254 161.514 52.8376 161.737 52.854C161.601 53.9778 161.193 55.0722 160.496 56.1458L160.495 56.1476ZM166.043 58.1748L166.062 58.7533L166.573 59.0253L168.855 60.24L169.266 60.4588L169.698 60.2851C169.985 60.1694 170.27 60.0467 170.552 59.9168C170.531 59.9655 170.51 60.0148 170.489 60.0647L170.123 60.9213L170.951 61.3469L173.264 62.535L174.22 63.0264L174.641 62.0367C175.868 59.1512 176.782 56.3038 177.379 53.495L177.586 52.521L176.613 52.3098L173.961 51.7344L172.921 51.5085L172.761 52.5616C172.667 53.1816 172.575 53.7255 172.487 54.1946C172.064 54.4419 171.593 54.6935 171.073 54.9492C171.106 54.7364 171.148 54.5235 171.197 54.3106C171.546 52.8008 172.207 51.4008 173.195 50.1085L173.783 50.2545L176.238 50.8637L177.183 51.0982L177.443 50.1598C177.774 48.961 177.959 47.8496 177.977 46.8336L177.99 46.1349L177.338 45.8827L173.554 44.4182L173.027 44.2143L172.581 44.5602C170.462 46.2022 168.812 48.307 167.631 50.8549L167.631 50.8554C166.503 53.291 165.964 55.7343 166.043 58.1748ZM186.063 47.3376C185.428 47.4468 184.784 47.5333 184.131 47.597C184.257 47.2859 184.392 46.9741 184.535 46.6615L184.687 46.3309C185.882 46.361 187.015 46.4761 188.085 46.6743L189.142 46.8702L189.261 45.8012L189.494 43.6969C190.078 43.6966 190.711 43.7065 191.393 43.7267C191.067 44.6489 190.74 45.6429 190.41 46.7083L190.41 46.7105C189.912 48.334 189.545 50.1475 189.304 52.146L189.222 52.8337L189.836 53.153L192.369 54.4683L193.625 55.1206L193.82 53.7188C193.959 52.7245 194.105 51.8113 194.26 50.9786L194.26 50.9786L194.262 50.9662C194.689 48.486 195.315 46.1995 196.137 44.1035L196.143 44.0873C196.856 44.1691 197.617 44.2641 198.425 44.3721L199.35 44.4959L199.537 43.5815L200.094 40.8606L200.314 39.7849L199.222 39.666C195.523 39.2634 192.289 39.1578 189.53 39.36L188.857 39.4094L188.651 40.0523L188.086 41.8167C185.308 41.5067 182.343 41.7292 179.199 42.4646L178.503 42.6273L178.432 43.338L178.192 45.7129L178.047 47.154L179.446 46.7791C179.508 46.7626 179.573 46.7462 179.641 46.7302C179.577 46.9035 179.513 47.0802 179.45 47.2603C178.451 50.0232 177.782 52.4921 177.459 54.6593L177.353 55.3663L177.988 55.6951L180.454 56.9722L180.693 57.0955L180.961 57.0831C183.09 56.9845 185.073 56.7116 186.904 56.2597L187.629 56.0808L187.663 55.3347L187.775 52.9009L187.836 51.5848L186.552 51.8804C185.129 52.208 183.798 52.4324 182.557 52.5564C182.603 52.3585 182.651 52.1628 182.701 51.9694C183.577 51.9383 184.723 51.8599 186.129 51.7371L186.972 51.6635L187.039 50.8196L187.23 48.4018L187.331 47.1198L186.063 47.3376ZM135.334 65.3079C135.385 65.1085 135.439 64.9071 135.495 64.7035C135.511 64.7061 135.528 64.7087 135.545 64.7113C135.79 64.7548 136.014 64.8007 136.218 64.8483C135.944 65.0092 135.65 65.1626 135.334 65.3079Z" class="budget-word" fill="#FFFFFF" stroke="#00219A" stroke-width="2"/>
</g>
<defs>
<clipPath id="clip0_1_2">
<rect width="200.27" height="75.69" fill="white"/>
</clipPath>
</defs>
</svg>
